<?xml version="1.0" standalone="no"?>
<!DOCTYPE svg PUBLIC "-//W3C//DTD SVG 20010904//EN"
 "http://www.w3.org/TR/2001/REC-SVG-20010904/DTD/svg10.dtd">
<svg version="1.0" xmlns="http://www.w3.org/2000/svg"
 width="2000.000000pt" height="2000.000000pt" viewBox="0 0 2000.000000 2000.000000"
 preserveAspectRatio="xMidYMid meet">
<metadata>
Created by potrace 1.14, written by Peter Selinger 2001-2017
</metadata>
<g transform="translate(0.000000,2000.000000) scale(0.100000,-0.100000)"
fill="#000000" stroke="none">
<path d="M9414 15732 c-308 -312 -602 -612 -654 -667 -52 -55 206 197 572 560
365 363 665 663 666 668 7 32 -92 -63 -584 -561z"/>
<path d="M6957 13052 c-1681 -1681 -3057 -3062 -3057 -3068 0 -11 6108 -6134
6119 -6134 3 1 1387 1379 3075 3063 l3069 3063 -3063 3067 c-1684 1687 -3068
3067 -3074 3067 -6 -1 -1387 -1377 -3069 -3058z m4083 -56 c179 -22 297 -46
578 -120 262 -69 440 -108 587 -127 50 -6 91 -12 93 -14 1 -1 -13 -96 -32
-211 -55 -332 -128 -889 -167 -1283 -8 -76 -18 -129 -27 -137 -45 -46 -236
-63 -308 -28 l-39 19 -7 135 c-16 323 -63 528 -174 760 -133 278 -314 483
-509 575 -96 45 -162 59 -285 58 -170 0 -320 -51 -452 -153 -192 -148 -277
-368 -266 -683 4 -115 9 -145 37 -227 82 -242 150 -322 746 -879 289 -271 406
-389 534 -541 254 -302 374 -489 450 -703 77 -219 106 -400 105 -667 0 -210
-16 -318 -70 -480 -103 -308 -339 -621 -644 -856 -375 -289 -892 -444 -1535
-461 -458 -12 -735 35 -1099 187 -313 130 -469 181 -736 239 -120 26 -125 28
-122 52 2 13 44 251 92 529 98 552 141 823 165 1030 21 178 20 175 52 189 57
26 163 40 226 30 103 -17 99 -11 112 -204 19 -289 87 -588 186 -823 90 -212
192 -365 349 -523 163 -164 287 -240 478 -291 93 -25 339 -30 437 -10 390 84
596 313 646 719 29 227 -15 449 -123 629 -78 131 -133 191 -629 689 -509 511
-583 591 -761 813 -217 271 -309 455 -370 735 -30 141 -33 506 -4 637 73 336
238 624 510 895 168 167 316 264 536 351 233 92 444 134 830 168 91 8 489 -4
610 -18z"/>
<path d="M15530 10818 c3 -4 184 -187 404 -407 l398 -399 -4 -41 c-3 -39 -3
-40 17 -27 11 7 22 21 24 31 2 13 -91 111 -311 329 -284 282 -541 532 -528
514z"/>
<path d="M3695 9960 c-3 -5 -4 -10 -1 -10 2 0 12 -3 20 -6 12 -5 15 -2 10 10
-7 18 -20 21 -29 6z"/>
<path d="M15565 9180 c-346 -346 -625 -633 -621 -637 4 -4 266 253 582 572
509 514 684 695 672 695 -1 0 -286 -283 -633 -630z"/>
<path d="M12200 5814 c-184 -185 -321 -328 -305 -316 37 25 656 652 645 652
-3 0 -156 -151 -340 -336z"/>
<path d="M10753 4370 c-386 -385 -698 -702 -694 -704 4 -3 218 208 477 467
674 678 930 937 924 937 -3 0 -321 -315 -707 -700z"/>
</g>
</svg>
