<?xml version="1.0" standalone="no"?>
<!DOCTYPE svg PUBLIC "-//W3C//DTD SVG 20010904//EN"
 "http://www.w3.org/TR/2001/REC-SVG-20010904/DTD/svg10.dtd">
<svg version="1.0" xmlns="http://www.w3.org/2000/svg"
 width="1409.000000pt" height="1409.000000pt" viewBox="0 0 1409.000000 1409.000000"
 preserveAspectRatio="xMidYMid meet">
<metadata>
Created by potrace 1.14, written by Peter Selinger 2001-2017
</metadata>
<g transform="translate(0.000000,1409.000000) scale(0.100000,-0.100000)"
fill="#000000" stroke="none">
<path d="M6976 13528 c-40 -31 -146 -140 -146 -150 0 -4 -7 -8 -16 -8 -8 0
-13 -4 -10 -8 3 -5 -4 -15 -15 -23 -32 -22 -68 -57 -64 -61 2 -2 -9 -12 -25
-23 -16 -11 -35 -30 -41 -42 -7 -13 -16 -23 -20 -23 -12 0 -58 -48 -51 -54 3
-3 0 -6 -6 -6 -13 0 -62 -47 -55 -53 2 -3 -5 -8 -16 -12 -12 -3 -19 -10 -16
-14 2 -4 -7 -14 -20 -21 -14 -7 -27 -21 -31 -32 -3 -10 -9 -18 -14 -18 -12 0
-80 -68 -80 -80 0 -6 -4 -10 -10 -10 -13 0 -50 -37 -50 -50 0 -5 -4 -10 -9
-10 -13 0 -91 -76 -91 -89 0 -6 -6 -11 -13 -11 -12 0 -43 -39 -40 -51 1 -4 -5
-6 -15 -5 -9 0 -16 -5 -15 -11 2 -7 -4 -13 -13 -13 -8 0 -13 -4 -9 -9 3 -5 -4
-12 -15 -16 -11 -3 -20 -13 -20 -21 0 -8 -4 -14 -9 -14 -12 0 -91 -78 -91 -90
0 -6 -7 -10 -16 -10 -8 0 -12 -4 -9 -10 3 -5 3 -10 -2 -10 -12 0 -103 -88
-103 -100 0 -6 -4 -10 -10 -10 -11 0 -100 -91 -100 -102 0 -5 -7 -8 -16 -8 -8
0 -13 -4 -10 -8 3 -5 -4 -15 -15 -23 -36 -25 -69 -58 -69 -69 0 -5 -5 -10 -10
-10 -14 0 -90 -75 -90 -89 0 -6 -4 -11 -9 -11 -13 0 -110 -98 -103 -105 3 -3
1 -5 -5 -5 -13 0 -153 -138 -153 -151 0 -5 -6 -9 -13 -9 -12 0 -43 -39 -40
-51 1 -4 -5 -6 -15 -5 -9 0 -16 -5 -14 -11 1 -7 -5 -13 -13 -13 -8 0 -15 -7
-15 -17 0 -9 -2 -14 -5 -11 -7 7 -95 -80 -95 -93 0 -5 -4 -9 -9 -9 -11 0 -93
-80 -83 -80 4 -1 -4 -7 -18 -15 -14 -8 -21 -14 -17 -15 4 0 2 -6 -5 -14 -7 -8
-16 -12 -20 -9 -5 2 -13 -7 -20 -21 -6 -14 -15 -26 -19 -26 -12 0 -79 -69 -79
-80 0 -6 -6 -10 -13 -10 -13 0 -43 -40 -39 -53 1 -5 -2 -6 -7 -3 -10 7 -111
-90 -103 -99 3 -3 -1 -5 -9 -5 -14 0 -45 -39 -42 -51 1 -4 -5 -6 -15 -5 -9 0
-16 -5 -15 -11 2 -7 -2 -13 -8 -13 -13 0 -63 -50 -51 -50 4 -1 -5 -8 -20 -16
-16 -8 -28 -21 -28 -29 0 -8 -6 -14 -12 -12 -7 1 -12 -6 -12 -15 1 -10 -2 -16
-6 -15 -11 3 -160 -140 -160 -153 0 -6 -5 -10 -11 -10 -13 0 -69 -58 -69 -71
0 -5 -5 -9 -10 -9 -11 0 -90 -81 -90 -92 0 -5 -7 -8 -16 -8 -8 0 -13 -4 -10
-9 3 -5 -4 -16 -17 -24 -39 -26 -87 -73 -87 -85 0 -7 -4 -12 -8 -12 -12 0
-142 -129 -142 -140 0 -6 -4 -10 -8 -10 -12 0 -112 -99 -112 -110 0 -6 -5 -10
-11 -10 -12 0 -44 -30 -32 -30 4 -1 -5 -8 -20 -16 -15 -8 -25 -19 -22 -23 2
-5 -4 -11 -15 -14 -11 -3 -20 -12 -20 -20 0 -9 -8 -18 -18 -21 -11 -4 -25 -18
-32 -31 -7 -14 -15 -23 -17 -21 -5 5 -149 -138 -146 -145 1 -3 -9 -12 -22 -19
-14 -7 -27 -21 -31 -32 -3 -10 -9 -18 -14 -18 -12 0 -80 -68 -80 -80 0 -6 -6
-10 -13 -10 -13 0 -43 -40 -39 -53 1 -5 -2 -6 -7 -3 -9 6 -122 -100 -114 -107
1 -2 -8 -10 -22 -17 -13 -7 -27 -21 -31 -32 -3 -10 -10 -18 -16 -18 -5 0 -24
-16 -40 -35 -17 -19 -34 -32 -39 -30 -4 3 -5 -4 -2 -15 4 -15 2 -19 -10 -14
-10 3 -18 -2 -22 -15 -3 -12 -10 -21 -14 -21 -12 0 -119 -108 -113 -114 3 -4
0 -6 -6 -6 -15 0 -52 -36 -52 -50 0 -5 -4 -10 -9 -10 -16 0 -72 -61 -65 -71 3
-5 2 -8 -3 -7 -13 4 -53 -26 -53 -39 0 -7 -5 -13 -11 -13 -11 0 -79 -70 -79
-82 0 -4 -8 -9 -18 -12 -11 -4 -25 -17 -32 -31 -7 -13 -17 -22 -21 -20 -4 3
-10 -4 -14 -15 -4 -11 -9 -19 -13 -17 -8 3 -121 -111 -115 -116 1 -2 -8 -10
-22 -17 -13 -7 -27 -22 -31 -32 -3 -10 -10 -16 -15 -13 -5 4 -9 -1 -9 -10 0
-9 -4 -13 -10 -10 -5 3 -10 -1 -10 -10 0 -9 -4 -14 -10 -10 -5 3 -16 -7 -24
-22 -8 -15 -15 -24 -16 -20 0 12 -30 -20 -30 -32 0 -6 -4 -11 -10 -11 -11 0
-100 -89 -100 -101 0 -5 -5 -9 -11 -9 -15 0 -39 -26 -32 -34 4 -3 0 -6 -8 -6
-8 0 -25 -16 -39 -34 -14 -19 -26 -33 -28 -31 -8 7 -42 -36 -37 -46 4 -5 3 -8
-2 -7 -13 4 -53 -26 -53 -39 0 -7 -4 -13 -10 -13 -11 0 -110 -99 -110 -110 0
-4 -10 -10 -21 -13 -15 -4 -20 -11 -16 -21 4 -10 1 -16 -8 -16 -15 0 -105 -86
-105 -101 0 -5 -4 -9 -9 -9 -13 0 -100 -88 -93 -95 3 -3 0 -5 -6 -5 -13 0 -62
-47 -55 -53 2 -3 -5 -8 -16 -12 -12 -3 -19 -10 -16 -14 2 -4 -7 -14 -20 -21
-14 -7 -25 -16 -25 -20 0 -4 -9 -17 -20 -30 -11 -13 -20 -20 -20 -16 0 4 -11
-5 -25 -20 -14 -15 -25 -31 -25 -35 0 -5 -5 -9 -10 -9 -16 0 -140 -131 -134
-141 3 -5 2 -8 -3 -7 -13 4 -53 -26 -53 -39 0 -7 -5 -13 -11 -13 -11 0 -79
-70 -79 -82 0 -4 -8 -9 -18 -12 -11 -4 -25 -18 -32 -31 -7 -14 -15 -23 -17
-21 -6 6 -49 -39 -57 -59 -3 -10 -9 -15 -12 -12 -8 8 -34 -18 -34 -32 0 -6 -4
-10 -9 -9 -5 2 -9 -1 -9 -6 0 -5 -12 -16 -26 -26 -15 -9 -24 -19 -20 -22 3 -4
-4 -9 -15 -13 -12 -3 -21 -13 -21 -21 0 -8 -3 -13 -8 -11 -4 3 -20 -13 -36
-36 -17 -22 -24 -37 -16 -32 10 6 12 3 8 -13 -4 -15 -2 -19 8 -15 8 3 14 0 14
-6 0 -14 902 -917 912 -913 5 1 7 -4 6 -10 -2 -7 3 -12 10 -10 6 1 12 -3 12
-8 0 -13 267 -280 280 -280 5 0 9 -3 9 -7 -3 -21 2 -33 14 -31 6 2 11 -3 9
-10 -1 -6 1 -11 6 -10 4 2 242 -232 529 -519 288 -288 527 -523 533 -523 5 0
9 -6 8 -12 -2 -7 3 -12 10 -10 6 1 11 -1 11 -5 -3 -21 2 -33 14 -31 6 2 11 -3
9 -10 -1 -6 1 -11 6 -10 9 4 588 -575 584 -584 -2 -7 13 -12 31 -9 4 0 7 -4 7
-9 0 -13 1087 -1100 1100 -1100 5 0 9 -3 9 -7 -3 -18 2 -33 9 -31 4 2 111
-100 237 -227 126 -126 233 -229 237 -227 4 1 8 -3 8 -8 0 -20 1871 -1882
1886 -1876 8 3 14 0 14 -5 0 -6 9 -9 20 -6 10 3 21 0 24 -7 3 -7 5 -7 5 2 1 7
6 10 11 7 6 -3 10 -1 10 4 0 14 43 57 52 54 5 -2 8 2 8 7 0 15 47 60 54 53 3
-4 6 -2 6 4 0 5 18 29 40 52 22 23 40 46 40 52 0 6 4 8 8 5 11 -7 112 101 103
110 -3 4 -1 4 5 1 14 -8 37 17 26 27 -4 4 -2 6 4 4 6 -2 48 34 93 80 45 45 86
82 92 82 6 0 8 4 5 9 -3 5 6 16 19 25 15 10 23 22 19 28 -5 8 -2 9 9 5 10 -3
17 -2 17 4 0 5 18 27 40 49 22 22 40 44 40 50 0 6 4 9 9 5 6 -3 20 8 32 24 12
17 26 28 31 25 4 -3 8 -1 8 4 0 13 77 92 90 92 5 0 9 4 8 9 -3 10 40 51 54 51
4 0 7 3 6 8 -3 9 64 78 73 75 4 -1 12 11 19 28 10 23 15 27 27 18 11 -10 12
-8 7 6 -5 13 -4 16 4 11 7 -4 12 -2 12 4 0 6 12 23 28 37 15 14 26 30 24 35
-1 5 2 7 7 4 11 -7 33 19 23 28 -4 4 -2 6 4 4 6 -2 49 35 95 82 46 47 87 84
92 82 4 -1 7 4 7 11 0 7 9 18 20 25 12 7 18 18 14 24 -5 8 -2 9 9 5 10 -3 17
-2 17 4 0 5 18 27 40 49 22 22 40 44 40 50 0 6 4 9 8 6 5 -3 27 14 50 39 22
24 44 40 48 37 4 -4 4 1 1 11 -6 15 3 22 26 18 4 0 7 3 7 8 0 12 183 196 193
193 7 -2 11 13 8 31 0 4 2 6 6 6 22 -4 32 3 27 16 -4 11 0 15 17 15 12 0 20 3
17 6 -7 7 48 64 61 64 6 0 7 7 4 17 -4 10 -2 14 4 10 13 -8 36 17 25 28 -4 5
-1 5 6 1 6 -4 12 -2 12 4 0 6 5 8 10 5 6 -3 10 -2 10 4 0 12 123 136 133 133
4 -1 7 2 7 7 0 5 27 36 60 70 33 34 60 66 60 72 0 6 4 8 9 4 6 -3 20 8 32 24
12 17 26 28 31 25 4 -3 8 -1 8 4 0 14 78 92 92 92 6 0 9 3 5 6 -6 7 41 54 54
54 5 0 8 4 7 8 -2 4 16 27 40 49 23 23 42 47 42 53 0 5 4 9 9 8 5 -2 41 29 79
68 38 39 77 74 86 77 10 4 16 13 13 21 -4 9 5 19 23 26 16 7 28 15 27 19 -3 9
66 76 75 73 4 -1 8 2 8 7 0 13 47 60 54 54 3 -4 6 -1 6 5 0 6 23 34 50 61 27
28 50 55 50 61 0 5 4 9 9 8 5 -2 41 30 80 69 39 40 76 73 83 73 6 0 9 3 5 6
-6 7 41 54 54 54 5 0 8 3 7 8 -4 10 100 111 107 104 3 -3 5 0 5 7 0 16 26 42
34 34 3 -4 6 4 6 16 0 17 4 21 15 17 8 -3 15 -1 15 4 0 18 40 51 53 43 7 -4 7
0 -2 10 -12 15 -11 17 3 17 10 0 14 5 11 10 -4 6 -2 9 3 8 6 -2 42 30 81 70
39 39 76 72 81 72 6 0 9 4 8 9 -3 10 40 51 54 51 4 0 7 4 6 8 -2 4 16 27 40
49 23 23 42 47 42 53 0 5 4 9 9 8 5 -2 41 30 80 70 39 39 76 72 82 72 5 0 7 5
3 12 -5 8 -2 9 11 4 14 -5 16 -4 6 7 -9 12 -5 17 18 27 17 7 29 15 28 19 -3 9
61 71 73 71 6 0 9 3 7 8 -5 9 50 62 57 54 3 -3 6 0 6 6 0 6 23 34 50 61 28 28
50 55 50 61 0 6 4 9 8 6 5 -3 27 14 50 39 22 24 44 40 48 37 4 -4 4 1 1 10 -4
10 -2 18 5 18 6 0 56 46 112 102 56 57 104 102 109 100 7 -2 11 13 8 31 0 4 2
6 6 6 22 -4 32 3 27 16 -4 11 0 15 17 15 12 0 20 3 17 6 -8 7 48 64 62 64 6 0
9 3 7 8 -5 9 50 62 57 54 3 -3 6 -1 6 5 0 14 262 278 273 275 4 -1 7 3 7 9 0
5 6 7 13 3 9 -6 9 -4 -1 8 -11 14 -10 17 7 23 12 3 21 11 21 16 0 6 5 7 10 4
6 -3 10 -1 10 5 0 15 46 60 54 53 3 -4 6 -1 6 5 0 15 42 58 53 54 4 -1 7 2 7
7 0 5 27 36 60 70 33 34 60 66 60 71 0 6 4 9 9 8 5 -2 41 30 80 70 39 39 76
72 82 72 5 0 7 5 3 12 -5 8 -2 9 11 4 14 -5 16 -4 6 7 -9 12 -5 17 18 27 17 7
29 15 28 19 -3 10 50 61 57 54 3 -4 6 -1 6 5 0 15 42 58 53 54 4 -1 7 5 7 13
0 8 5 15 10 15 14 0 50 37 43 44 -4 3 1 6 10 6 10 0 16 3 15 8 -2 4 8 18 22
32 14 14 28 24 33 22 7 -2 11 14 8 31 -1 5 3 6 8 3 12 -8 33 18 23 29 -4 5 1
5 11 2 9 -4 17 -2 17 3 0 13 62 76 72 72 4 -1 8 2 8 6 0 14 41 57 51 54 5 -1
9 2 9 8 0 5 23 32 50 59 28 28 50 55 50 61 0 6 4 9 9 5 6 -3 20 8 32 24 12 17
26 28 30 25 4 -2 10 5 14 16 3 11 13 20 21 20 8 0 13 3 12 8 -4 9 45 58 55 54
4 -1 7 2 7 7 0 4 12 20 26 34 l26 26 -21 29 c-30 42 -119 132 -131 132 -5 0
-9 6 -8 13 2 6 -3 11 -9 9 -7 -1 -13 5 -13 13 0 9 -7 18 -15 21 -8 4 -12 10
-9 15 3 5 -4 9 -15 9 -12 0 -20 6 -19 13 2 6 -3 11 -9 9 -7 -1 -13 3 -13 9 0
15 -47 59 -54 51 -3 -3 -6 0 -6 6 0 14 -56 72 -70 72 -5 0 -9 6 -8 13 2 6 -3
11 -9 9 -7 -1 -13 8 -13 20 0 12 -3 19 -6 15 -8 -8 -34 18 -34 33 0 6 -4 8
-10 5 -5 -3 -10 -1 -10 5 0 6 -4 8 -10 5 -5 -3 -10 -1 -10 4 0 16 -75 91 -90
91 -8 0 -10 3 -7 6 4 4 -19 32 -51 62 -31 31 -55 61 -54 66 2 6 1 8 -3 4 -4
-4 -24 11 -45 32 -21 21 -41 36 -44 33 -3 -4 -6 -1 -6 5 0 14 -75 92 -89 92
-6 0 -11 5 -11 10 0 6 -11 20 -25 32 -13 11 -21 26 -18 32 3 6 3 8 -1 4 -10
-8 -116 95 -116 113 0 11 -2 11 -10 -1 -8 -13 -10 -12 -10 3 0 10 -9 21 -21
25 -11 5 -21 12 -21 17 0 6 -4 9 -9 7 -5 -1 -9 4 -9 11 0 15 -61 73 -72 69 -5
-1 -8 3 -8 9 0 15 -47 59 -54 51 -3 -3 -6 0 -6 6 0 15 -94 112 -109 112 -6 0
-11 5 -11 11 0 6 -40 50 -90 99 -49 49 -90 94 -90 100 0 6 -4 8 -10 5 -5 -3
-10 -1 -10 5 0 6 -4 8 -10 5 -5 -3 -10 -1 -10 4 0 6 -27 38 -60 71 -33 33 -60
65 -60 71 0 5 -4 7 -10 4 -5 -3 -10 -1 -10 5 0 6 -4 8 -10 5 -5 -3 -10 -1 -10
4 0 15 -75 91 -89 91 -6 0 -11 4 -11 10 0 13 -257 270 -270 270 -5 0 -10 5
-10 11 0 14 -76 89 -90 89 -6 0 -9 4 -6 9 3 5 -1 11 -9 15 -8 3 -15 12 -15 21
0 8 -4 14 -9 12 -5 -1 -20 10 -34 25 -14 15 -28 24 -31 21 -3 -4 -6 -1 -6 5 0
15 -37 52 -52 52 -6 0 -9 3 -6 6 8 7 -36 54 -51 54 -6 0 -10 3 -8 8 1 4 -2 8
-7 9 -5 1 -14 12 -20 25 -6 12 -23 28 -36 35 -14 7 -20 13 -15 13 6 0 0 9 -12
19 -12 10 -19 22 -15 26 4 3 2 6 -3 5 -20 -4 -35 0 -35 11 0 14 -76 89 -91 89
-5 0 -7 5 -4 10 3 6 1 10 -5 10 -6 0 -8 5 -5 10 3 6 1 10 -5 10 -13 0 -175
162 -172 172 1 5 -1 7 -6 7 -18 -3 -32 2 -32 12 0 6 -24 35 -54 64 -30 30 -51
57 -48 60 4 4 0 5 -8 3 -8 -2 -14 3 -13 9 2 7 0 12 -5 12 -18 -3 -32 2 -32 12
0 14 -76 89 -91 89 -5 0 -7 5 -4 10 3 6 1 10 -5 10 -6 0 -8 5 -5 10 3 6 1 10
-4 10 -6 0 -28 18 -50 40 -21 22 -44 40 -50 40 -7 0 -9 5 -6 10 3 6 1 10 -5
10 -6 0 -8 5 -5 10 4 6 3 9 -2 8 -13 -4 -154 142 -148 152 3 6 -1 7 -9 4 -9
-3 -16 -1 -16 6 0 6 -4 8 -10 5 -5 -3 -10 -1 -10 4 0 17 -33 51 -49 51 -8 0
-12 3 -8 6 3 3 -8 19 -26 35 -17 16 -27 29 -22 30 6 0 0 4 -12 9 -13 5 -23 17
-23 25 0 9 -4 13 -10 10 -5 -3 -10 -1 -10 5 0 6 -4 8 -10 5 -5 -3 -10 -1 -10
5 0 6 -18 29 -40 50 -22 21 -40 44 -40 52 0 10 -3 9 -10 -2 -9 -13 -10 -13
-11 0 -1 8 -1 18 0 22 0 5 -5 7 -12 5 -6 -1 -11 5 -9 13 2 8 1 12 -3 9 -8 -9
-55 34 -55 50 0 6 -4 10 -9 8 -5 -1 -20 10 -34 25 -14 15 -28 24 -31 21 -3 -4
-6 1 -6 10 0 10 -4 17 -10 17 -5 0 -10 7 -10 16 0 8 -4 13 -9 9 -6 -3 -16 2
-23 11 -39 47 -87 94 -97 94 -10 0 -15 14 -12 32 0 5 -5 7 -12 5 -6 -1 -11 5
-9 13 2 8 1 12 -3 8 -9 -8 -115 97 -115 114 0 9 -3 8 -10 -2 -7 -11 -10 -12
-10 -2 0 7 -40 53 -90 102 -49 49 -90 94 -90 100 0 6 -4 8 -10 5 -5 -3 -10 -1
-10 5 0 6 -4 8 -10 5 -5 -3 -10 -2 -10 3 0 14 -136 152 -150 152 -6 0 -8 5 -5
10 3 6 1 10 -5 10 -7 0 -10 7 -7 14 4 10 1 13 -9 9 -10 -4 -17 2 -21 17 -4 16
-8 18 -14 8 -7 -11 -9 -11 -9 0 0 17 -116 132 -132 132 -9 0 -8 3 2 10 11 7
11 10 2 10 -7 0 -49 36 -93 80 -44 44 -84 80 -90 80 -5 0 -9 7 -9 15 0 9 -10
20 -22 25 -14 5 -17 9 -8 10 9 0 3 7 -12 16 -16 8 -28 19 -28 24 0 6 -7 10
-17 10 -9 0 -14 3 -10 6 8 8 -18 34 -34 34 -7 0 -10 3 -7 6 4 3 -20 31 -53 63
-32 32 -55 62 -51 66 4 5 2 5 -4 2 -6 -3 -21 5 -32 18 -12 14 -26 25 -32 25
-5 0 -10 5 -10 11 0 13 -78 89 -91 89 -6 0 -8 4 -5 9 3 5 -1 11 -9 15 -8 3
-15 12 -15 21 0 8 -4 14 -9 12 -5 -1 -20 10 -34 25 -14 15 -28 24 -31 21 -3
-4 -6 1 -6 10 0 8 -9 19 -20 22 -11 4 -18 11 -15 16 4 5 1 9 -5 9 -6 0 -8 5
-5 10 3 6 1 10 -4 10 -6 0 -51 41 -100 90 -50 50 -95 90 -100 90 -6 0 -11 5
-11 11 0 6 -24 35 -54 64 -30 30 -51 57 -48 60 4 4 0 5 -8 3 -8 -2 -14 3 -13
9 2 7 0 12 -5 12 -18 -3 -32 2 -32 12 0 14 -76 89 -91 89 -5 0 -7 5 -4 10 3 6
1 10 -5 10 -6 0 -8 5 -5 10 3 6 1 10 -4 10 -6 0 -43 32 -81 70 -38 39 -75 70
-81 70 -5 0 -7 5 -4 10 3 6 1 10 -5 10 -6 0 -8 5 -5 10 3 6 0 10 -8 10 -8 0
-22 11 -31 25 -9 14 -21 23 -26 20 -6 -4 -10 3 -10 15 0 12 -4 19 -9 16 -5 -3
-11 1 -15 9 -3 8 -12 15 -21 15 -8 0 -14 3 -13 8 5 13 -117 130 -142 137 -18
4 -34 -1 -54 -17z"/>
</g>
</svg>
